Genre:Comedy
Language:English
IMDb:http://www.imdb.com/title/tt1464174/
Source: CiNEDUB/IMAGiNE Thx.


Format : AVI
Format/Info : Audio Video Interleave
File size : 844 MiB
Duration : 1h 39mn
Overall bit rate : 1 183 Kbps


Video
Codec ID/Hint : XviD
Duration : 1h 39mn
Bit rate : 1 046 Kbps
Width : 656 pixels
Height : 368 pixels
Display aspect ratio : 16:9
Frame rate : 25.000 fps
Color space : YUV
Chroma subsampling : 4:2:0
Bit depth : 8 bits
Scan type : Progressive
Bits/(Pixel*Frame) : 0.173
Stream size : 746 MiB (88%)
Writing library : XviD 1.2.1

Audio
ID : 1
Format : MPEG Audio
Format version : Version 1
Format profile : Layer 3
Codec ID : 55
Codec ID/Hint : MP3
Duration : 1h 39mn
Bit rate mode : Constant
Bit rate : 128 Kbps
Channel(s) : 2 channels
Sampling rate : 44.1 KHz
Stream size : 91.3 MiB (11%)
Alignment : Split accross interleaves
Interleave, duration : 40 ms (1.00 video frame)
Interleave, preload duration : 500 ms



Plot:
FBI agent Malcolm Turner and his stepson Trent go undercover at an all-girls performing arts school after Trent witnesses a murder.





================================== 
http://thepiratebay.org/user/hiest
==================================

